<?xml version="1.0" encoding="UTF-8" standalone="no"?>
<!-- Created with Inkscape (http://www.inkscape.org/) -->

<svg
   xmlns:dc="http://purl.org/dc/elements/1.1/"
   xmlns:cc="http://creativecommons.org/ns#"
   xmlns:rdf="http://www.w3.org/1999/02/22-rdf-syntax-ns#"
   xmlns:svg="http://www.w3.org/2000/svg"
   xmlns="http://www.w3.org/2000/svg"
   xmlns:sodipodi="http://sodipodi.sourceforge.net/DTD/sodipodi-0.dtd"
   xmlns:inkscape="http://www.inkscape.org/namespaces/inkscape"
   width="594.09003"
   height="352.35999"
   id="svg2"
   version="1.1"
   inkscape:version="0.48.4 r9939"
   sodipodi:docname="Felipe Vi signature.svg">
  <defs
     id="defs4">
    <marker
       inkscape:stockid="Arrow1Lend"
       orient="auto"
       refY="0"
       refX="0"
       id="Arrow1Lend"
       style="overflow:visible">
      <path
         id="path4347"
         d="M 0,0 5,-5 -12.5,0 5,5 0,0 z"
         style="fill-rule:evenodd;stroke:#000000;stroke-width:1pt"
         transform="matrix(-0.8,0,0,-0.8,-10,0)"
         inkscape:connector-curvature="0" />
    </marker>
  </defs>
  <sodipodi:namedview
     id="base"
     pagecolor="#ffffff"
     bordercolor="#666666"
     borderopacity="1.0"
     inkscape:pageopacity="0.0"
     inkscape:pageshadow="2"
     inkscape:zoom="3.959798"
     inkscape:cx="435.54978"
     inkscape:cy="106.59746"
     inkscape:document-units="px"
     inkscape:current-layer="layer1"
     showgrid="false"
     inkscape:window-width="1366"
     inkscape:window-height="706"
     inkscape:window-x="-8"
     inkscape:window-y="-8"
     inkscape:window-maximized="1" />
  <metadata
     id="metadata7">
    <rdf:RDF>
      <cc:Work
         rdf:about="">
        <dc:format>image/svg+xml</dc:format>
        <dc:type
           rdf:resource="http://purl.org/dc/dcmitype/StillImage" />
      </cc:Work>
    </rdf:RDF>
  </metadata>
  <g
     inkscape:label="Capa 1"
     inkscape:groupmode="layer"
     id="layer1"
     transform="translate(0,-700.00209)">
    <path
       style="fill:none;stroke:#000000;stroke-width:6.5;stroke-linecap:round;stroke-linejoin:round;stroke-miterlimit:4;stroke-opacity:1;stroke-dasharray:none;marker-start:none;marker-mid:none"
       d="m 558.4511,716.21335 12.19579,-4.64241 -115.03221,16.51695 c -49.95509,4.26102 -100.9816,11.02961 -150.93669,15.85843 -62.88259,6.07843 -124.69375,10.33581 -187.57634,16.73547 l -99.571913,10.82472 c -3.301938,0.43347 -6.704137,0.76668 -8.6221924,2.58403 0,0 7.3065954,2.308 18.7291904,7.80113 3.338654,1.60555 19.85557,7.6774 23.73896,9.6125 9.40293,4.68549 14.40258,8.10149 25.04337,14.08505 7.00047,3.93652 13.00324,7.98168 19.83575,12.02005 6.271635,3.70686 13.017465,7.18309 26.717665,15.40624 4.57801,2.74782 10.76638,7.97513 22.43569,20.41943 2.61172,2.78516 4.16029,5.28175 7.27933,8.9921 0.68332,0.81286 2.11974,2.63166 2.51359,3.64341 1.70335,4.37569 11.17105,6.94483 32.01371,70.65131 9.90893,30.28705 12.00208,41.35389 13.06326,42.0726 -0.66018,0.36505 3.49432,-6.0701 6.66587,-19.33607 4.41201,-18.4545 8.4328,-36.97892 9.97536,-53.10278 1.50174,-13.05763 1.31467,-25.78298 0.44208,-38.38206"
       id="path2996"
       inkscape:connector-curvature="0"
       sodipodi:nodetypes="cccscccssssssssscscc" />
    <path
       style="fill:none;stroke:#000000;stroke-width:6.5;stroke-linecap:round;stroke-linejoin:round;stroke-miterlimit:4;stroke-opacity:1;stroke-dasharray:none;marker-start:none;marker-mid:none"
       d="m 231.6615,893.07467 c 0,0 3.59651,-1.26415 5.53572,-1.42857 2.74758,-0.23295 7.85714,1.07142 7.85714,1.07142"
       id="path3766"
       inkscape:connector-curvature="0"
       sodipodi:nodetypes="csc" />
    <path
       style="fill:none;stroke:#000000;stroke-width:6.5;stroke-linecap:round;stroke-linejoin:round;stroke-miterlimit:4;stroke-opacity:1;stroke-dasharray:none;marker-start:none;marker-mid:none"
       d="m 374.26151,861.44335 c 4.00118,18.96646 3.43916,36.65772 -0.17016,54.27507 -2.70205,13.18888 -4.74529,27.25012 -5.89075,42.1945"
       id="path3768"
       inkscape:connector-curvature="0"
       sodipodi:nodetypes="csc" />
    <path
       style="fill:none;stroke:#000000;stroke-width:6.5;stroke-linecap:round;stroke-linejoin:round;stroke-miterlimit:4;stroke-opacity:1;stroke-dasharray:none;marker-start:none;marker-mid:none"
       d="m 558.61436,976.09566 16.41497,-2.90418 c 0,0 -30.28513,-1.1967 -76.11027,2.05028 -34.03512,2.41159 -77.91418,7.3791 -118.68288,13.84804 -12.95346,1.89759 -25.82768,3.96275 -38.65185,6.19621 -64.39402,11.21489 -127.52611,26.67349 -193.09191,46.46949"
       id="path3770"
       inkscape:connector-curvature="0"
       sodipodi:nodetypes="ccscsc" />
    <path
       style="fill:none;stroke:#000000;stroke-width:6.5;stroke-linecap:round;stroke-linejoin:round;stroke-miterlimit:4;stroke-opacity:1;stroke-dasharray:none;marker-start:none;marker-mid:none"
       d="m 355.08981,993.03108 c 7.60776,-1.49063 16.38522,-5.21206 32.00216,-10.26831 5.53889,-1.7933 13.48352,-4.85837 20.39358,-6.51718 23.5952,-5.66419 46.41496,-15.35334 67.58395,-25.04268 32.37504,-14.81851 49.02653,-23.58939 42.63368,-34.70624 -3.82812,-6.65691 -11.9754,-7.8167 -19.32436,-9.99255 l -50.04455,-10.03117 -26.46932,-7.75548 c -4.866,-1.63334 -8.03828,-3.22778 -9.21764,-6.56599 -0.34124,-1.40746 -2.06068,-5.76349 3.15673,-8.9651 3.52533,-2.16329 7.69363,0.69887 8.20748,4.04061 0.68578,4.45983 -0.50506,6.31345 -3.91433,9.21764 -15.51709,11.56024 -24.95308,13.62749 -43.52847,15.15229"
       id="path3772"
       inkscape:connector-curvature="0"
       sodipodi:nodetypes="cssssccccsscc" />
    <path
       style="fill:none;stroke:#000000;stroke-width:6.5;stroke-linecap:round;stroke-linejoin:round;stroke-miterlimit:4;stroke-opacity:1;stroke-dasharray:none;marker-start:none;marker-mid:none;marker-end:none"
       d="m 300.23294,892.71752 c 0,0 5.69765,-0.24741 8.82447,-3.14794 4.31882,-7.57831 1.87996,-8.34029 -3.65075,-5.40624 -10.60992,5.62858 -22.40717,22.98894 8.75485,17.66133 1.34435,-0.51213 6.7339,-2.34652 14.60843,-7.0768 14.06088,-8.44646 28.22925,-25.30118 31.10585,-33.99463 2.06599,-6.24365 2.69651,-11.94657 2.55984,-16.60366 -0.23814,-8.11457 -1.73407,-13.054 -3.09555,-12.14634 -12.44653,11.37046 -15.48173,65.6502 -4.28571,66.25 4.46428,-0.71428 7.32143,-4.10715 7.32143,-4.10715"
       id="path3774"
       inkscape:connector-curvature="0"
       sodipodi:nodetypes="ccscsssccc" />
  </g>
</svg>
